<svg data-v-0dd9719b="" version="1.0" xmlns="http://www.w3.org/2000/svg" xmlns:xlink="http://www.w3.org/1999/xlink" width="100%" height="100%" viewBox="0 0 340.000000 250.000000" preserveAspectRatio="xMidYMid meet" color-interpolation-filters="sRGB" style="margin: auto;"> <rect data-v-0dd9719b="" x="0" y="0" width="100%" height="100%" fill="#fff" fill-opacity="1" class="background"></rect> <rect data-v-0dd9719b="" x="0" y="0" width="100%" height="100%" fill="url(#watermark)" fill-opacity="1" class="watermarklayer"></rect> <g data-v-0dd9719b="" fill="#333" class="icon-text-wrapper icon-svg-group iconsvg" transform="translate(48.08000183105469,93.11224365234375)"><g class="iconsvg-imagesvg" transform="translate(0,0)"><g><rect fill="#333" fill-opacity="0" stroke-width="2" x="0" y="0" width="60" height="63.775510204081634" class="image-rect"></rect> <svg x="0" y="0" width="60" height="63.775510204081634" filtersec="colorsb4337804105" class="image-svg-svg primary" style="overflow: visible;"><svg xmlns="http://www.w3.org/2000/svg" viewBox="0 0 94.08000183105469 100"><path fill="#1d1c58" d="M0 75.7L23.22 100l23.82-24.93L70.86 100l23.22-24.3L83.5 64.63 72.93 75.69l.02.01-2.09 2.19-23.82-24.93-23.82 24.93-2.08-2.19v-.01L10.57 64.63 0 75.7z"></path><path d="M0 49.22l23.22 24.3L47 48.6l23.86 24.92 23.22-24.3L47 0zm21.13 0L47 22.11l26 27.11-2.14 2.18L47 26.48 23.22 51.4z" fill="#29aae1"></path></svg></svg> <!----></g></g> <g transform="translate(67,3.0515098571777344)"><g data-gra="path-name" fill-rule="" class="tp-name iconsvg-namesvg" transform="translate(0,0)"><g transform="scale(1)"><g><path d="M18.98-37.27L19.16-37.62Q25.66-35.51 25.14-33.57L25.14-33.57Q25.14-32.87 24.08-31.46L24.08-31.46 35.68-31.46 37.97-34.28 42.01-30.59 41.84-30.41 11.6-30.41Q9.67-30.59 9.84-28.83L9.84-28.83 9.84-20.04 22.68-20.04 22.68-24.61 14.94-24.61 13.01-24.26 11.95-25.66 22.68-25.66 22.68-30.06 26.72-28.3 25.31-26.89 25.31-25.66 33.4-25.66 34.63-27.6 38.32-24.96 36.56-23.55 36.56-20.04 38.14-20.04 40.08-22.68 43.59-19.16 43.42-18.98 36.56-18.98 36.56-11.95Q34.63-10.72 33.93-10.9L33.93-10.9 33.93-13.36 25.31-13.36 25.31-10.37Q24.08-9.32 22.68-9.14L22.68-9.14 22.68-13.36 14.06-13.36 11.95-13.01 11.25-14.24 22.68-14.24 22.68-18.98 9.84-18.98Q9.84-9.49 8.09-4.92L8.09-4.92Q6.5-0.18 1.41 4.39L1.41 4.39 1.05 4.04Q7.38-2.99 7.03-18.98L7.03-18.98 7.03-26.37Q7.03-30.23 6.86-33.22L6.86-33.22 10.72-31.46 22.5-31.46Q22.32-31.64 22.15-32.34L22.15-32.34Q22.32-32.17 22.15-32.7L22.15-32.7Q21.45-35.16 18.98-37.27L18.98-37.27ZM33.93-20.04L33.93-24.61 25.31-24.61 25.31-20.04 33.93-20.04ZM33.93-18.98L25.31-18.98 25.31-14.24 33.93-14.24 33.93-18.98ZM33.57-7.91L35.16-9.84 38.67-7.38 36.91-5.8 36.91-3.16Q36.91 0.18 37.27 3.52L37.27 3.52Q35.68 4.75 34.28 4.92L34.28 4.92 34.28 1.23 16.7 1.23 16.7 4.04Q14.94 5.1 13.71 5.1L13.71 5.1Q14.06 1.76 14.06-1.58L14.06-1.58 14.06-4.22Q14.06-5.45 13.89-7.56L13.89-7.56Q13.89-9.14 13.89-9.67L13.89-9.67 17.4-7.91 33.57-7.91ZM34.28 0.35L34.28-6.86 18.46-6.86Q16.52-6.86 16.7-5.63L16.7-5.63 16.7 0.35 34.28 0.35ZM65.04-35.51L65.04-35.51Q69.79-33.57 69.96-33.4L69.96-33.4Q69.96-33.22 68.2-31.99L68.2-31.99 68.2-1.41 80.16-1.41 79.98-26.72Q82.79-25.66 84.9-24.43L84.9-24.43Q84.9-24.43 84.02-23.73L84.02-23.73Q83.14-23.03 83.14-22.85L83.14-22.85Q83.14-13.54 83.5-2.29L83.5-2.29Q83.67 1.23 83.67 2.29L83.67 2.29Q83.32 3.16 80.16 3.69L80.16 3.69 80.16-0.35 54.32-0.35Q54.14-0.35 53.26 1.05L53.26 1.05Q52.73 1.93 52.73 1.93L52.73 1.93Q51.15 1.05 49.22-0.53L49.22-0.53Q49.22-0.7 50.27-1.41L50.27-1.41Q51.15-2.11 51.15-2.11L51.15-2.11 51.33-27.6Q55.9-25.31 55.9-25.14L55.9-25.14Q56.07-24.96 54.84-24.26L54.84-24.26Q54.14-23.55 54.14-23.55L54.14-23.55 54.14-1.41 65.21-1.41Q65.21 2.64 65.21-25.49L65.21-25.49Q65.21-34.28 65.04-35.51ZM108.98-37.09L108.98-37.09 113.55-34.63Q113.55-34.63 113.38-34.45L113.38-34.45Q112.15-33.75 111.27-32.7L111.27-32.7Q109.51-30.06 108.11-26.89L108.11-26.89 123.93-26.89Q124.1-27.07 124.98-28.3L124.98-28.3Q125.68-29.18 125.68-29.18L125.68-29.18Q127.79-27.95 129.38-26.19L129.38-26.19Q129.38-26.19 128.67-25.66L128.67-25.66Q127.44-24.79 127.44-24.61L127.44-24.61Q127.62-7.03 128.32 2.81L128.32 2.81Q127.62 4.04 124.63 4.39L124.63 4.39 124.63 0.7 100.02 0.7 100.02 3.87Q98.79 4.92 96.86 4.92L96.86 4.92Q97.03-3.16 97.03-28.48L97.03-28.48 100.72-26.89 106.7-26.89Q108.28-30.76 108.98-37.09ZM124.63-26.02L100.72-26.02Q99.84-26.19 100.02-24.96L100.02-24.96 100.02-14.41 124.63-14.41 124.63-26.02ZM124.63-0.35L124.63-13.36 100.02-13.36 100.02-0.35 124.63-0.35ZM161.37-29.71L161.19-35.51Q165.06-33.75 165.23-33.57L165.23-33.57Q165.23-33.57 164.53-33.05L164.53-33.05Q164-32.7 163.83-32.52L163.83-32.52 163.83-29.71 171.39-29.71 173.32-32.17 177.19-28.83 177.19-28.65 163.83-28.65 163.83-25.84Q163.3-25.14 161.37-24.96L161.37-24.96 161.37-28.65 152.4-28.65 152.4-25.84Q151.7-25.14 149.94-24.61L149.94-24.61 149.94-28.65 140.63-28.65 138.52-28.13 137.46-29.71 149.94-29.71 149.77-35.33Q150.29-34.98 151.7-34.63L151.7-34.63Q153.63-33.75 153.81-33.57L153.81-33.57Q153.81-33.57 153.11-33.05L153.11-33.05Q152.4-32.52 152.4-32.34L152.4-32.34 152.4-29.71 161.37-29.71ZM159.79-24.79L159.79-24.79Q163.65-23.38 163.48-23.2L163.48-23.2Q163.48-23.03 163.13-22.85L163.13-22.85Q162.07-22.32 161.19-20.57L161.19-20.57 169.8-20.57 171.56-23.2 175.61-19.86 175.43-19.51 160.49-19.51Q157.32-14.41 154.16-11.6L154.16-11.6 153.81-12.13Q157.85-17.23 159.79-24.79ZM149.59-10.2L149.59-23.73Q153.28-22.5 153.28-22.15L153.28-22.15Q153.28-22.15 152.93-21.62L152.93-21.62Q152.23-20.92 152.05-20.57L152.05-20.57 152.05-11.6Q151.17-10.55 149.59-10.2L149.59-10.2ZM141.86-23.2L141.86-23.2Q145.37-21.45 145.55-21.09L145.55-21.09Q145.55-21.09 145.02-20.57L145.02-20.57Q144.32-20.21 144.32-20.04L144.32-20.04 144.14-11.78Q143.44-10.72 141.68-10.37L141.68-10.37Q141.86-14.24 141.86-17.75L141.86-17.75Q141.86-21.09 141.86-23.2ZM162.07-18.28L162.6-18.46Q166.46-16.17 167.7-14.41L167.7-14.41Q168.4-13.01 166.99-11.43L166.99-11.43Q165.59-10.02 165.06-11.6L165.06-11.6Q165.06-11.78 165.06-11.95L165.06-11.95Q164.71-14.77 162.07-18.28L162.07-18.28ZM168.93-10.55L168.93-10.55Q171.04-9.14 172.27-7.91L172.27-7.91Q170.86-7.03 170.16-6.33L170.16-6.33 170.16 2.64 171.91 2.64 174.02 0 177.89 3.34 177.89 3.69 139.22 3.69 137.11 4.22 136.23 2.64 143.61 2.64Q143.61-8.26 143.61-10.02L143.61-10.02Q143.61-10.2 147.13-8.79L147.13-8.79 167.34-8.79Q168.75-10.55 168.93-10.55ZM151.52 2.64L151.52-7.73 147.3-7.73Q146.07-7.73 146.07-6.5L146.07-6.5 146.07 2.64 151.52 2.64ZM159.61 2.64L159.61-7.73 153.81-7.73 153.81 2.64 159.61 2.64ZM167.7 2.64L167.7-7.73 162.07-7.73 162.07 2.64 167.7 2.64Z" transform="translate(-1.0499999523162842, 37.619998931884766)"></path></g> <!----> <!----> <!----> <!----> <!----> <!----> <!----></g></g> <g data-gra="path-slogan" fill-rule="" class="tp-slogan iconsvg-slogansvg" fill="#333" transform="translate(17.449996948242188,48.71999740600586)"><!----> <!----> <g transform="scale(1, 1)"><g transform="scale(1)"><path d="M3.09-7.59L0.19-7.59L0.19-8.58L7.13-8.58L7.13-7.59L4.22-7.59L4.22 0L3.09 0L3.09-7.59ZM13.83 0L12.98-2.48L9.52-2.48L8.63 0L7.45 0L10.69-8.58L12-8.58L15.09 0L13.83 0ZM11.25-7.31L9.89-3.52L12.56-3.52L11.30-7.31L11.25-7.31ZM17.53-8.58L21.84-1.64L21.84-8.58L22.97-8.58L22.97 0L21.66 0L17.30-6.94L17.25-6.94L17.25 0L16.13 0L16.13-8.58L17.53-8.58ZM31.17-3.61L28.55-3.61L28.55-4.59L32.30-4.59L32.30 0L31.55 0L31.27-1.08Q30.28 0.09 28.45 0.14L28.45 0.14Q26.72 0.14 25.78-0.75L25.78-0.75Q24.38-2.06 24.42-4.36L24.42-4.36Q24.75-8.63 28.50-8.81L28.50-8.81Q31.69-8.63 32.16-6L32.16-6L31.03-6Q30.56-7.78 28.45-7.83L28.45-7.83Q25.78-7.64 25.64-4.31L25.64-4.31Q25.64-0.75 28.50-0.75L28.50-0.75Q29.53-0.75 30.28-1.31L30.28-1.31Q31.22-2.06 31.17-3.61L31.17-3.61ZM40.36-6.09L40.36-6.09L39.28-6.09Q39.19-7.73 37.13-7.83L37.13-7.83Q35.20-7.78 35.20-6.33L35.20-6.33Q35.20-5.39 36.23-5.25L36.23-5.25L38.67-4.69Q40.59-4.22 40.59-2.34L40.59-2.34Q40.55 0.05 37.22 0.14L37.22 0.14Q35.39 0.14 34.64-0.61L34.64-0.61Q33.70-1.31 33.75-2.77L33.75-2.77L34.88-2.77Q34.92-0.80 37.22-0.75L37.22-0.75Q39.47-0.80 39.52-2.20L39.52-2.20Q39.70-3.38 37.64-3.75L37.64-3.75L35.86-4.13Q34.03-4.64 34.03-6.19L34.03-6.19Q34.17-8.72 37.03-8.81L37.03-8.81Q40.27-8.81 40.36-6.09ZM43.22-5.06L47.72-5.06L47.72-8.58L48.89-8.58L48.89 0L47.72 0L47.72-3.98L43.22-3.98L43.22 0L42.05 0L42.05-8.58L43.22-8.58L43.22-5.06ZM56.34 0L55.50-2.48L52.03-2.48L51.14 0L49.97 0L53.20-8.58L54.52-8.58L57.61 0L56.34 0ZM53.77-7.31L52.41-3.52L55.08-3.52L53.81-7.31L53.77-7.31ZM60.05-8.58L64.36-1.64L64.36-8.58L65.48-8.58L65.48 0L64.17 0L59.81-6.94L59.77-6.94L59.77 0L58.64 0L58.64-8.58L60.05-8.58ZM75.38-7.13L75.33-7.13L73.36 0L72.14 0L69.89-8.58L71.11-8.58L72.75-1.59L72.80-1.59L74.72-8.58L75.98-8.58L77.91-1.59L77.95-1.59L79.55-8.58L80.81-8.58L78.56 0L77.34 0L75.38-7.13ZM83.06-5.06L87.56-5.06L87.56-8.58L88.73-8.58L88.73 0L87.56 0L87.56-3.98L83.06-3.98L83.06 0L81.89 0L81.89-8.58L83.06-8.58L83.06-5.06ZM90.70-8.58L91.88-8.58L91.88 0L90.70 0L90.70-8.58ZM96.05-7.59L93.14-7.59L93.14-8.58L100.08-8.58L100.08-7.59L97.17-7.59L97.17 0L96.05 0L96.05-7.59ZM102.42-1.03L107.58-1.03L107.58 0L101.25 0L101.25-8.58L107.48-8.58L107.48-7.59L102.42-7.59L102.42-4.92L107.11-4.92L107.11-3.89L102.42-3.89L102.42-1.03ZM115.64-7.64L113.58-7.64L113.58-4.97L115.64-4.97Q117.47-4.92 117.42-6.38L117.42-6.38Q117.42-7.64 115.64-7.64L115.64-7.64ZM116.11 0L112.41 0L112.41-8.58L116.20-8.58Q118.50-8.48 118.59-6.42L118.59-6.42Q118.59-5.16 117.47-4.64L117.47-4.64Q119.06-4.08 119.06-2.53L119.06-2.53Q118.92-0.09 116.11 0L116.11 0ZM115.83-3.98L113.58-3.98L113.58-0.98L116.06-0.98Q117.84-1.03 117.89-2.53L117.89-2.53Q117.89-3.98 115.83-3.98L115.83-3.98ZM120.38-8.58L121.55-8.58L121.55-1.03L125.91-1.03L125.91 0L120.38 0L120.38-8.58ZM132.70-3.19L132.70-8.58L133.88-8.58L133.88-3.05Q133.73 0.05 130.36 0.14L130.36 0.14Q127.22 0.05 127.08-2.86L127.08-2.86L127.08-8.58L128.25-8.58L128.25-3.19Q128.30-0.84 130.41-0.80L130.41-0.80Q132.70-0.84 132.70-3.19L132.70-3.19ZM136.97-1.03L142.13-1.03L142.13 0L135.80 0L135.80-8.58L142.03-8.58L142.03-7.59L136.97-7.59L136.97-4.92L141.66-4.92L141.66-3.89L136.97-3.89L136.97-1.03Z" transform="translate(-0.1875, 8.8125)"></path></g></g></g></g></g><defs v-gra="od"></defs></svg>